<svg width="243" height="165" viewBox="0 0 243 165" fill="none" xmlns="http://www.w3.org/2000/svg">
<path d="M238.99 0.640259H3.31273C2.43414 0.640259 1.59153 0.989279 0.970276 1.61054C0.349019 2.23179 0 3.0744 0 3.95299L0 161.06C0 161.938 0.349019 162.781 0.970276 163.402C1.59153 164.023 2.43414 164.372 3.31273 164.372H238.99C239.425 164.373 239.856 164.287 240.258 164.121C240.66 163.954 241.025 163.71 241.333 163.403C241.64 163.095 241.884 162.73 242.051 162.328C242.217 161.926 242.303 161.495 242.302 161.06V3.95299C242.303 3.51788 242.217 3.087 242.051 2.68497C241.884 2.28294 241.64 1.91764 241.333 1.60998C241.025 1.30232 240.66 1.05831 240.258 0.891917C239.856 0.725525 239.425 0.64001 238.99 0.640259ZM6.62546 7.26572H235.677V133.859H6.62546V7.26572ZM235.677 157.747H6.62546V140.485H235.677V157.747Z" fill="#69B3E9"/>
<path d="M92.0465 70.5635C92.0569 64.3667 90.5694 58.2592 87.7108 52.7611C84.8522 47.263 80.7072 42.5373 75.6287 38.9863C70.5502 35.4353 64.6887 33.1644 58.5435 32.3668C52.3982 31.5692 46.1512 32.2686 40.3345 34.4055C34.5178 36.5424 29.3037 40.0535 25.1363 44.6396C20.9689 49.2258 17.9716 54.7512 16.3997 60.7454C14.8278 66.7395 14.7279 73.0247 16.1085 79.0658C17.489 85.1069 20.3091 90.7248 24.3287 95.4411C24.4479 95.5967 24.5803 95.7417 24.7243 95.8746C28.3184 99.9994 32.7547 103.306 37.7343 105.572C42.714 107.838 48.1214 109.01 53.5924 109.01C59.0633 109.01 64.4707 107.838 69.4504 105.572C74.4301 103.306 78.8663 99.9994 82.4604 95.8746C82.6045 95.7417 82.7368 95.5967 82.8561 95.4411C88.7877 88.5095 92.0471 79.6865 92.0465 70.5635ZM53.5943 38.7367C59.2773 38.7251 64.8594 40.2384 69.7583 43.119C74.6573 45.9995 78.6936 50.1417 81.4465 55.1135C84.1993 60.0853 85.5678 65.7047 85.4092 71.3855C85.2506 77.0663 83.5707 82.6006 80.5447 87.411C79.1765 85.7842 77.4691 84.4763 75.5421 83.579C73.615 82.6817 71.515 82.2167 69.3893 82.2167H37.8011C35.675 82.2164 33.5747 82.6813 31.6473 83.5786C29.7199 84.4759 28.0122 85.7839 26.6438 87.411C23.6191 82.6003 21.9403 77.0663 21.7823 71.386C21.6243 65.7056 22.993 60.0868 25.7456 55.1154C28.4982 50.1441 32.534 46.0021 37.4322 43.1212C42.3304 40.2404 47.9117 38.7263 53.5943 38.7367ZM53.5943 102.388C49.3608 102.389 45.17 101.543 41.2687 99.8995C37.3674 98.2558 33.8346 95.8478 30.8784 92.8174C31.582 91.6069 32.5913 90.6024 33.8053 89.9047C35.0192 89.2071 36.3952 88.8406 37.7954 88.8422H69.3893C70.7895 88.8406 72.1655 89.2071 73.3795 89.9047C74.5934 90.6024 75.6028 91.6069 76.3063 92.8174C73.3506 95.8473 69.8184 98.255 65.9178 99.8988C62.0172 101.542 57.8271 102.389 53.5943 102.388Z" fill="#69B3E9"/>
<path d="M53.5943 76.0607C56.9901 76.0572 60.2458 74.7066 62.647 72.3054C65.0482 69.9043 66.3987 66.6485 66.4022 63.2527V61.3105C66.4228 59.6156 66.1068 57.9334 65.4724 56.3615C64.8381 54.7896 63.898 53.3593 62.7067 52.1534C61.5154 50.9476 60.0966 49.9902 58.5326 49.3368C56.9685 48.6833 55.2903 48.3469 53.5952 48.3469C51.9002 48.3469 50.222 48.6833 48.6579 49.3368C47.0938 49.9902 45.675 50.9476 44.4838 52.1534C43.2925 53.3593 42.3524 54.7896 41.718 56.3615C41.0837 57.9334 40.7676 59.6156 40.7882 61.3105V63.2622C40.7942 66.656 42.1456 69.909 44.5461 72.3081C46.9466 74.7072 50.2004 76.0567 53.5943 76.0607ZM47.4137 61.2954C47.3993 60.4745 47.5486 59.659 47.8528 58.8964C48.157 58.1339 48.61 57.4395 49.1855 56.8539C49.7609 56.2683 50.4472 55.8032 51.2043 55.4857C51.9615 55.1682 52.7742 55.0047 53.5952 55.0047C54.4162 55.0047 55.229 55.1682 55.9861 55.4857C56.7433 55.8032 57.4296 56.2683 58.005 56.8539C58.5804 57.4395 59.0335 58.1339 59.3377 58.8964C59.6419 59.659 59.7911 60.4745 59.7768 61.2954V63.2471C59.7911 64.0679 59.6419 64.8834 59.3377 65.646C59.0335 66.4086 58.5804 67.1029 58.005 67.6885C57.4296 68.2741 56.7433 68.7392 55.9861 69.0567C55.229 69.3742 54.4162 69.5377 53.5952 69.5377C52.7742 69.5377 51.9615 69.3742 51.2043 69.0567C50.4472 68.7392 49.7609 68.2741 49.1855 67.6885C48.61 67.1029 48.157 66.4086 47.8528 65.646C47.5486 64.8834 47.3993 64.0679 47.4137 63.2471V61.2954Z" fill="#69B3E9"/>
<path d="M223.846 29.2717H123.162C122.283 29.2717 121.44 29.6207 120.819 30.2419C120.198 30.8632 119.849 31.7058 119.849 32.5844V44.991C119.849 45.8696 120.198 46.7122 120.819 47.3335C121.44 47.9547 122.283 48.3038 123.162 48.3038H223.846C224.281 48.304 224.712 48.2185 225.114 48.0521C225.516 47.8857 225.881 47.6417 226.189 47.334C226.496 47.0264 226.741 46.6611 226.907 46.2591C227.073 45.857 227.159 45.4261 227.159 44.991V32.5844C227.159 32.1493 227.073 31.7184 226.907 31.3164C226.741 30.9143 226.496 30.549 226.189 30.2414C225.881 29.9337 225.516 29.6897 225.114 29.5233C224.712 29.3569 224.281 29.2714 223.846 29.2717ZM220.533 41.6783H126.474V35.8971H220.533V41.6783Z" fill="#69B3E9"/>
<path d="M223.846 55.2794H123.162C122.283 55.2794 121.44 55.6284 120.819 56.2497C120.198 56.871 119.849 57.7136 119.849 58.5921V70.9988C119.849 71.8774 120.198 72.72 120.819 73.3412C121.44 73.9625 122.283 74.3115 123.162 74.3115H223.846C224.281 74.3118 224.712 74.2263 225.114 74.0599C225.516 73.8935 225.881 73.6495 226.189 73.3418C226.496 73.0341 226.741 72.6688 226.907 72.2668C227.073 71.8648 227.159 71.4339 227.159 70.9988V58.5921C227.159 58.157 227.073 57.7262 226.907 57.3241C226.741 56.9221 226.496 56.5568 226.189 56.2491C225.881 55.9415 225.516 55.6975 225.114 55.5311C224.712 55.3647 224.281 55.2792 223.846 55.2794ZM220.533 67.6861H126.474V61.9049H220.533V67.6861Z" fill="#69B3E9"/>
<path d="M223.846 92.8212H167.529C167.094 92.8209 166.663 92.9064 166.261 93.0728C165.859 93.2392 165.494 93.4832 165.186 93.7909C164.879 94.0985 164.635 94.4638 164.468 94.8659C164.302 95.2679 164.216 95.6988 164.217 96.1339V108.541C164.216 108.976 164.302 109.407 164.468 109.809C164.635 110.211 164.879 110.576 165.186 110.884C165.494 111.191 165.859 111.435 166.261 111.602C166.663 111.768 167.094 111.854 167.529 111.853H223.846C224.281 111.854 224.712 111.768 225.114 111.602C225.516 111.435 225.881 111.191 226.189 110.884C226.496 110.576 226.74 110.211 226.907 109.809C227.073 109.407 227.159 108.976 227.159 108.541V96.1415C227.16 95.7057 227.075 95.274 226.909 94.8711C226.743 94.4682 226.499 94.102 226.191 93.7936C225.884 93.4851 225.518 93.2404 225.116 93.0735C224.713 92.9067 224.282 92.8209 223.846 92.8212ZM220.533 105.228H170.842V99.4466H220.533V105.228Z" fill="#69B3E9"/>
</svg>
