<svg width="199" height="199" viewBox="0 0 199 199" fill="none" xmlns="http://www.w3.org/2000/svg">
<g clip-path="url(#clip0)">
<path d="M178.414 181.845V178.414H171.552V181.845C171.552 183.738 173.093 185.276 174.983 185.276C176.873 185.276 178.414 183.738 178.414 181.845Z" fill="#22A2FF"/>
<path d="M185.276 178.761V181.845C185.276 187.519 180.657 192.138 174.983 192.138C169.309 192.138 164.69 187.519 164.69 181.845V178.761C156.871 180.355 150.966 187.283 150.966 195.569V199H199V195.569C199 187.286 193.095 180.355 185.276 178.761Z" fill="#22A2FF"/>
<path d="M188.707 144.103H168.121C166.231 144.103 164.69 142.566 164.69 140.672V137.241H157.828V140.672C157.828 146.347 162.446 150.966 168.121 150.966H188.707C190.597 150.966 192.138 152.503 192.138 154.397C192.138 156.29 190.597 157.828 188.707 157.828H181.845C176.171 157.828 171.552 162.446 171.552 168.121V171.552H178.414V168.121C178.414 166.228 179.955 164.69 181.845 164.69H188.707C194.381 164.69 199 160.071 199 154.397C199 148.722 194.381 144.103 188.707 144.103Z" fill="#22A2FF"/>
<path d="M61.7586 27.6024C54.5816 29.916 48.7281 34.8699 45.1178 41.1724H78.3995C74.7892 34.8699 68.9357 29.916 61.7586 27.6024Z" fill="#22A2FF"/>
<path d="M140.672 150.966H58.3276C56.4378 150.966 54.8965 152.503 54.8965 154.397V164.69H144.103V154.397C144.103 152.503 142.562 150.966 140.672 150.966Z" fill="#22A2FF"/>
<path d="M13.7241 89.2069H20.5862V61.7586H34.3103V55.8565C34.3103 55.5348 34.3405 55.2149 34.3522 54.8965H13.7241V89.2069Z" fill="#22A2FF"/>
<path d="M27.4483 68.6207H34.3104V89.2069H27.4483V68.6207Z" fill="#22A2FF"/>
<path d="M137.241 68.6207H185.276V96.0689H137.241V68.6207Z" fill="#22A2FF"/>
<path d="M122.097 109.793H76.9034L70.0414 116.655H0V120.086C0 125.76 4.61883 130.379 10.2931 130.379H188.707C194.381 130.379 199 125.76 199 120.086V116.655H128.959L122.097 109.793ZM85.7759 123.517H78.9138V116.655H85.7759V123.517ZM106.362 123.517H92.6379V116.655H106.362V123.517ZM120.086 123.517H113.224V116.655H120.086V123.517Z" fill="#22A2FF"/>
<path d="M68.6207 137.241H130.379V144.103H68.6207V137.241Z" fill="#22A2FF"/>
<path d="M65.1896 61.7586H58.3276C56.4378 61.7586 54.8965 63.2999 54.8965 65.1896V89.2069H68.6207V65.1896C68.6207 63.2999 67.0794 61.7586 65.1896 61.7586Z" fill="#22A2FF"/>
<path d="M188.707 0H10.2931C4.61883 0 0 4.61883 0 10.2931V109.793H67.2L74.0621 102.931H124.938L131.8 109.793H199V10.2931C199 4.61883 194.381 0 188.707 0ZM192.138 102.931H130.379V61.7586H192.138V102.931ZM137.241 54.8966V48.0345H178.414V54.8966H137.241ZM192.138 54.8966H185.276V48.0345H192.138V54.8966ZM192.138 41.1724H137.241V34.3103H192.138V41.1724ZM137.241 27.4483V20.5862H144.103V27.4483H137.241ZM192.138 27.4483H150.966V20.5862H192.138V27.4483ZM192.138 13.7241H132.668L116.655 52.1524V96.069H6.86207V48.0345H35.1949C37.8687 35.984 46.5485 25.8534 58.3276 21.5428V6.86207H65.1897V21.5428C76.9688 25.8534 85.6485 35.984 88.3223 48.0345H110.936L128.091 6.86207H192.138V13.7241Z" fill="#22A2FF"/>
<path d="M89.2069 68.6207H96.069V89.2069H89.2069V68.6207Z" fill="#22A2FF"/>
<path d="M89.2069 55.8565V61.7586H102.931V89.2069H109.793V54.8965H89.165C89.1768 55.2199 89.2069 55.5348 89.2069 55.8565Z" fill="#22A2FF"/>
<path d="M42.253 48.0345C41.5594 50.5458 41.1724 53.1676 41.1724 55.8565V89.2069H48.0345V65.1897C48.0345 59.5154 52.6533 54.8966 58.3276 54.8966H65.1897C70.8639 54.8966 75.4828 59.5154 75.4828 65.1897V89.2069H82.3448V55.8565C82.3448 53.1676 81.9578 50.5458 81.2643 48.0345H42.253Z" fill="#22A2FF"/>
</g>
<defs>
<clipPath id="clip0">
<rect width="199" height="199" fill="white"/>
</clipPath>
</defs>
</svg>
