<svg width="199" height="199" viewBox="0 0 199 199" fill="none" xmlns="http://www.w3.org/2000/svg">
<g clip-path="url(#clip0)">
<path d="M197.718 84.19C196.608 82.8114 194.941 82.0098 193.169 82.0098H29.1505C26.4176 82.0098 24.0492 83.9045 23.457 86.5752L0.138166 192.293C-0.244434 194.017 0.177641 195.823 1.28141 197.207C2.39126 198.584 4.44849 199.387 6.21877 199.387H169.849C172.581 199.387 174.95 197.491 175.542 194.821L198.862 89.103C199.244 87.3783 198.823 85.5731 197.718 84.19ZM151.97 170.237C151.97 173.459 149.363 176.067 146.14 176.067H99.5003C96.2771 176.067 93.6702 173.459 93.6702 170.237V146.917C93.6702 143.693 96.2771 141.087 99.5003 141.087H146.14C149.363 141.087 151.97 143.693 151.97 146.917V170.237Z" fill="#22A2FF"/>
<path d="M105.33 152.747H140.309V164.407H105.33V152.747Z" fill="#22A2FF"/>
<path d="M23.3204 71.3425V47.0292H5.8301C2.60836 47.0292 0 49.636 0 52.8593V139.158L12.0762 84.0472C13.4229 77.9757 17.7423 73.2904 23.3204 71.3425Z" fill="#22A2FF"/>
<path d="M116.989 70.348V50.632C120.572 46.5312 122.819 41.231 122.819 35.369C122.819 24.0504 107.01 5.76305 103.838 2.23311C101.629 -0.226465 97.3702 -0.226465 95.1611 2.23311C91.9895 5.76305 76.1799 24.0504 76.1799 35.369C76.1799 41.231 78.4269 46.5297 82.01 50.632V70.348H116.989Z" fill="#22A2FF"/>
<path d="M194.579 17.657L163.06 2.4897C161.655 1.81255 160.054 1.71539 158.603 2.24374C157.145 2.75084 155.95 3.8212 155.278 5.21648L128.649 60.5644V70.348H169.622L153.541 62.611C150.638 61.2157 149.419 57.7314 150.814 54.8285C152.214 51.9362 155.705 50.7125 158.597 52.1017L179.615 62.2132L184.668 51.7069L163.653 41.5969C160.748 40.2016 159.531 36.7172 160.924 33.8143C162.332 30.916 165.827 29.6922 168.707 31.0875L189.726 41.1976L197.306 25.4396C198.701 22.5352 197.484 19.0508 194.579 17.657Z" fill="#22A2FF"/>
<path d="M34.9806 70.348H70.3498V54.6341C68.7982 52.2945 67.6261 49.715 66.668 47.0292H34.9806V70.348Z" fill="#22A2FF"/>
<path d="M58.3875 4.28268C56.8055 -0.477041 48.9136 -0.477041 47.3316 4.28268L36.9998 35.3689H64.5197C64.5197 32.6983 65.1209 29.9063 65.959 27.0884L58.3875 4.28268Z" fill="#22A2FF"/>
</g>
<defs>
<clipPath id="clip0">
<rect width="199" height="199" fill="white"/>
</clipPath>
</defs>
</svg>
