<svg width="283" height="174" viewBox="0 0 283 174" fill="none" xmlns="http://www.w3.org/2000/svg">
<circle cx="196" cy="87" r="87" fill="#22A2FF"/>
<circle r="34" transform="matrix(-1 0 0 1 125 104)" fill="#69B3E9"/>
<path d="M17.62 97.4C21.216 97.4 24.3287 97.9993 26.958 99.198C29.626 100.397 31.6753 102.098 33.106 104.302C34.5367 106.506 35.252 109.116 35.252 112.132C35.252 115.109 34.5367 117.719 33.106 119.962C31.6753 122.166 29.626 123.867 26.958 125.066C24.3287 126.226 21.216 126.806 17.62 126.806H9.442V138H0.0460003V97.4H17.62ZM17.098 119.15C19.9207 119.15 22.0667 118.551 23.536 117.352C25.0053 116.115 25.74 114.375 25.74 112.132C25.74 109.851 25.0053 108.111 23.536 106.912C22.0667 105.675 19.9207 105.056 17.098 105.056H9.442V119.15H17.098ZM52.5931 106.332C57.4264 106.332 61.1384 107.492 63.7291 109.812C66.3198 112.093 67.6151 115.554 67.6151 120.194V138H59.1471V134.114C57.4458 137.014 54.2751 138.464 49.6351 138.464C47.2378 138.464 45.1498 138.058 43.3711 137.246C41.6311 136.434 40.2971 135.313 39.3691 133.882C38.4411 132.451 37.9771 130.827 37.9771 129.01C37.9771 126.11 39.0598 123.829 41.2251 122.166C43.4291 120.503 46.8124 119.672 51.3751 119.672H58.5671C58.5671 117.7 57.9678 116.192 56.7691 115.148C55.5704 114.065 53.7724 113.524 51.3751 113.524C49.7124 113.524 48.0691 113.795 46.4451 114.336C44.8598 114.839 43.5064 115.535 42.3851 116.424L39.1371 110.102C40.8384 108.903 42.8684 107.975 45.2271 107.318C47.6244 106.661 50.0798 106.332 52.5931 106.332ZM51.8971 132.374C53.4438 132.374 54.8164 132.026 56.0151 131.33C57.2138 130.595 58.0644 129.532 58.5671 128.14V124.95H52.3611C48.6491 124.95 46.7931 126.168 46.7931 128.604C46.7931 129.764 47.2378 130.692 48.1271 131.388C49.0551 132.045 50.3118 132.374 51.8971 132.374ZM93.513 108.942C96.4903 108.942 99.1003 109.561 101.343 110.798C103.586 111.997 105.306 113.698 106.505 115.902C107.742 118.106 108.361 120.658 108.361 123.558C108.361 126.535 107.626 129.184 106.157 131.504C104.726 133.785 102.716 135.564 100.125 136.84C97.5343 138.077 94.5957 138.696 91.309 138.696C85.857 138.696 81.565 136.956 78.433 133.476C75.3397 129.957 73.793 124.815 73.793 118.048C73.793 111.784 75.1463 106.796 77.853 103.084C80.5983 99.3333 84.7937 96.878 90.439 95.718L105.287 92.76L106.505 100.532L93.397 103.142C89.8397 103.838 87.191 104.998 85.451 106.622C83.7497 108.246 82.7443 110.547 82.435 113.524C83.7883 112.055 85.4123 110.933 87.307 110.16C89.2017 109.348 91.2703 108.942 93.513 108.942ZM91.367 131.678C93.687 131.678 95.543 130.924 96.935 129.416C98.3657 127.908 99.081 125.994 99.081 123.674C99.081 121.315 98.3657 119.44 96.935 118.048C95.543 116.656 93.687 115.96 91.367 115.96C89.0083 115.96 87.1137 116.656 85.683 118.048C84.2523 119.44 83.537 121.315 83.537 123.674C83.537 126.033 84.2717 127.966 85.741 129.474C87.2103 130.943 89.0857 131.678 91.367 131.678ZM129.116 138.464C125.83 138.464 122.872 137.787 120.242 136.434C117.652 135.042 115.622 133.128 114.152 130.692C112.683 128.256 111.948 125.491 111.948 122.398C111.948 119.305 112.683 116.54 114.152 114.104C115.622 111.668 117.652 109.773 120.242 108.42C122.872 107.028 125.83 106.332 129.116 106.332C132.403 106.332 135.342 107.028 137.932 108.42C140.523 109.773 142.553 111.668 144.022 114.104C145.492 116.54 146.226 119.305 146.226 122.398C146.226 125.491 145.492 128.256 144.022 130.692C142.553 133.128 140.523 135.042 137.932 136.434C135.342 137.787 132.403 138.464 129.116 138.464ZM129.116 131.04C131.436 131.04 133.331 130.267 134.8 128.72C136.308 127.135 137.062 125.027 137.062 122.398C137.062 119.769 136.308 117.681 134.8 116.134C133.331 114.549 131.436 113.756 129.116 113.756C126.796 113.756 124.882 114.549 123.374 116.134C121.866 117.681 121.112 119.769 121.112 122.398C121.112 125.027 121.866 127.135 123.374 128.72C124.882 130.267 126.796 131.04 129.116 131.04ZM177.533 114.22H166.977V138H157.987V114.22H147.431V106.796H177.533V114.22ZM198.77 116.772C202.83 116.811 205.904 117.719 207.992 119.498C210.08 121.277 211.124 123.829 211.124 127.154C211.124 130.634 209.945 133.321 207.586 135.216C205.227 137.111 201.883 138.058 197.552 138.058L182.356 138V106.796H191.346V116.772H198.77ZM214.488 106.796H223.478V138H214.488V106.796ZM196.74 131.62C198.48 131.659 199.814 131.291 200.742 130.518C201.67 129.745 202.134 128.585 202.134 127.038C202.134 125.53 201.67 124.428 200.742 123.732C199.853 123.036 198.519 122.669 196.74 122.63L191.346 122.572V131.62H196.74Z" fill="white"/>
</svg>
