<svg width="281" height="174" viewBox="0 0 281 174" fill="none" xmlns="http://www.w3.org/2000/svg">
<circle cx="194" cy="87" r="87" fill="#22A2FF"/>
<circle r="34" transform="matrix(-1 0 0 1 123 104)" fill="#69B3E9"/>
<path d="M37.05 83.4V124H27.712V91.056H9.384V124H0.0460003V83.4H37.05ZM64.8044 92.332C67.7044 92.332 70.3337 93.0087 72.6924 94.362C75.0897 95.6767 76.965 97.552 78.3184 99.988C79.6717 102.385 80.3484 105.189 80.3484 108.398C80.3484 111.607 79.6717 114.43 78.3184 116.866C76.965 119.263 75.0897 121.139 72.6924 122.492C70.3337 123.807 67.7044 124.464 64.8044 124.464C60.8217 124.464 57.6897 123.207 55.4084 120.694V135.252H46.3604V92.796H55.0024V96.392C57.245 93.6853 60.5124 92.332 64.8044 92.332ZM63.2384 117.04C65.5584 117.04 67.453 116.267 68.9224 114.72C70.4304 113.135 71.1844 111.027 71.1844 108.398C71.1844 105.769 70.4304 103.681 68.9224 102.134C67.453 100.549 65.5584 99.756 63.2384 99.756C60.9184 99.756 59.0044 100.549 57.4964 102.134C56.027 103.681 55.2924 105.769 55.2924 108.398C55.2924 111.027 56.027 113.135 57.4964 114.72C59.0044 116.267 60.9184 117.04 63.2384 117.04ZM101.306 124.464C98.0192 124.464 95.0612 123.787 92.4318 122.434C89.8412 121.042 87.8112 119.128 86.3418 116.692C84.8725 114.256 84.1378 111.491 84.1378 108.398C84.1378 105.305 84.8725 102.54 86.3418 100.104C87.8112 97.668 89.8412 95.7733 92.4318 94.42C95.0612 93.028 98.0192 92.332 101.306 92.332C104.593 92.332 107.531 93.028 110.122 94.42C112.713 95.7733 114.743 97.668 116.212 100.104C117.681 102.54 118.416 105.305 118.416 108.398C118.416 111.491 117.681 114.256 116.212 116.692C114.743 119.128 112.713 121.042 110.122 122.434C107.531 123.787 104.593 124.464 101.306 124.464ZM101.306 117.04C103.626 117.04 105.521 116.267 106.99 114.72C108.498 113.135 109.252 111.027 109.252 108.398C109.252 105.769 108.498 103.681 106.99 102.134C105.521 100.549 103.626 99.756 101.306 99.756C98.9858 99.756 97.0718 100.549 95.5638 102.134C94.0558 103.681 93.3018 105.769 93.3018 108.398C93.3018 111.027 94.0558 113.135 95.5638 114.72C97.0718 116.267 98.9858 117.04 101.306 117.04ZM159.787 116.576V130.844H151.377V124H124.639V92.796H133.629V116.576H146.215V92.796H155.263V116.576H159.787ZM195.811 108.514C195.811 108.63 195.753 109.442 195.637 110.95H172.031C172.456 112.883 173.462 114.411 175.047 115.532C176.632 116.653 178.604 117.214 180.963 117.214C182.587 117.214 184.018 116.982 185.255 116.518C186.531 116.015 187.71 115.242 188.793 114.198L193.607 119.418C190.668 122.782 186.376 124.464 180.731 124.464C177.212 124.464 174.1 123.787 171.393 122.434C168.686 121.042 166.598 119.128 165.129 116.692C163.66 114.256 162.925 111.491 162.925 108.398C162.925 105.343 163.64 102.598 165.071 100.162C166.54 97.6873 168.532 95.7733 171.045 94.42C173.597 93.028 176.439 92.332 179.571 92.332C182.626 92.332 185.39 92.9893 187.865 94.304C190.34 95.6187 192.273 97.5133 193.665 99.988C195.096 102.424 195.811 105.266 195.811 108.514ZM179.629 99.176C177.58 99.176 175.859 99.756 174.467 100.916C173.075 102.076 172.224 103.661 171.915 105.672H187.285C186.976 103.7 186.125 102.134 184.733 100.974C183.341 99.7753 181.64 99.176 179.629 99.176ZM217.594 124.464C214.269 124.464 211.272 123.787 208.604 122.434C205.975 121.042 203.906 119.128 202.398 116.692C200.929 114.256 200.194 111.491 200.194 108.398C200.194 105.305 200.929 102.54 202.398 100.104C203.906 97.668 205.975 95.7733 208.604 94.42C211.272 93.028 214.269 92.332 217.594 92.332C220.881 92.332 223.742 93.028 226.178 94.42C228.653 95.7733 230.451 97.726 231.572 100.278L224.554 104.048C222.93 101.187 220.591 99.756 217.536 99.756C215.178 99.756 213.225 100.529 211.678 102.076C210.132 103.623 209.358 105.73 209.358 108.398C209.358 111.066 210.132 113.173 211.678 114.72C213.225 116.267 215.178 117.04 217.536 117.04C220.63 117.04 222.969 115.609 224.554 112.748L231.572 116.576C230.451 119.051 228.653 120.984 226.178 122.376C223.742 123.768 220.881 124.464 217.594 124.464ZM251.522 124.464C248.197 124.464 245.2 123.787 242.532 122.434C239.903 121.042 237.834 119.128 236.326 116.692C234.857 114.256 234.122 111.491 234.122 108.398C234.122 105.305 234.857 102.54 236.326 100.104C237.834 97.668 239.903 95.7733 242.532 94.42C245.2 93.028 248.197 92.332 251.522 92.332C254.809 92.332 257.67 93.028 260.106 94.42C262.581 95.7733 264.379 97.726 265.5 100.278L258.482 104.048C256.858 101.187 254.519 99.756 251.464 99.756C249.106 99.756 247.153 100.529 245.606 102.076C244.06 103.623 243.286 105.73 243.286 108.398C243.286 111.066 244.06 113.173 245.606 114.72C247.153 116.267 249.106 117.04 251.464 117.04C254.558 117.04 256.897 115.609 258.482 112.748L265.5 116.576C264.379 119.051 262.581 120.984 260.106 122.376C257.67 123.768 254.809 124.464 251.522 124.464Z" fill="white"/>
</svg>
