<svg width="286" height="174" viewBox="0 0 286 174" fill="none" xmlns="http://www.w3.org/2000/svg">
<circle cx="199" cy="87" r="87" fill="#22A2FF"/>
<circle r="34" transform="matrix(-1 0 0 1 128 104)" fill="#69B3E9"/>
<path d="M41.702 83.4L24.418 115.532C22.7553 118.625 20.7447 120.965 18.386 122.55C16.066 124.135 13.5333 124.928 10.788 124.928C8.66133 124.928 6.45733 124.464 4.176 123.536L6.438 116.402C8.062 116.905 9.41533 117.156 10.498 117.156C11.658 117.156 12.702 116.885 13.63 116.344C14.558 115.764 15.4087 114.875 16.182 113.676L16.53 113.212L0.522 83.4H10.556L21.344 105.208L32.48 83.4H41.702ZM57.9968 124.464C54.6715 124.464 51.6748 123.787 49.0068 122.434C46.3775 121.042 44.3088 119.128 42.8008 116.692C41.3315 114.256 40.5968 111.491 40.5968 108.398C40.5968 105.305 41.3315 102.54 42.8008 100.104C44.3088 97.668 46.3775 95.7733 49.0068 94.42C51.6748 93.028 54.6715 92.332 57.9968 92.332C61.2835 92.332 64.1448 93.028 66.5808 94.42C69.0555 95.7733 70.8535 97.726 71.9748 100.278L64.9568 104.048C63.3328 101.187 60.9935 99.756 57.9388 99.756C55.5802 99.756 53.6275 100.529 52.0808 102.076C50.5342 103.623 49.7608 105.73 49.7608 108.398C49.7608 111.066 50.5342 113.173 52.0808 114.72C53.6275 116.267 55.5802 117.04 57.9388 117.04C61.0322 117.04 63.3715 115.609 64.9568 112.748L71.9748 116.576C70.8535 119.051 69.0555 120.984 66.5808 122.376C64.1448 123.768 61.2835 124.464 57.9968 124.464ZM106.948 92.796V124H97.8999V100.22H88.0399L87.7499 105.73C87.5953 109.829 87.2086 113.231 86.5899 115.938C85.9713 118.645 84.9659 120.771 83.5739 122.318C82.1819 123.865 80.2486 124.638 77.7739 124.638C76.4593 124.638 74.8933 124.406 73.0759 123.942L73.5399 116.518C74.1586 116.595 74.6033 116.634 74.8739 116.634C76.2273 116.634 77.2326 116.151 77.8899 115.184C78.5859 114.179 79.0499 112.922 79.2819 111.414C79.5139 109.867 79.6879 107.837 79.8039 105.324L80.2679 92.796H106.948ZM146.911 92.796L132.817 125.914C131.386 129.51 129.607 132.043 127.481 133.512C125.393 134.981 122.86 135.716 119.883 135.716C118.259 135.716 116.654 135.465 115.069 134.962C113.483 134.459 112.188 133.763 111.183 132.874L114.489 126.436C115.185 127.055 115.977 127.538 116.867 127.886C117.795 128.234 118.703 128.408 119.593 128.408C120.83 128.408 121.835 128.099 122.609 127.48C123.382 126.9 124.078 125.914 124.697 124.522L124.813 124.232L111.299 92.796H120.637L129.395 113.966L138.211 92.796H146.911ZM176.274 100.22H160.266V124H151.276V92.796H176.274V100.22ZM181.069 92.796H190.059V111.356L205.255 92.796H213.549V124H204.559V105.44L189.421 124H181.069V92.796Z" fill="white"/>
</svg>
